<?xml version="1.0" ?><!DOCTYPE svg  PUBLIC '-//W3C//DTD SVG 1.1//EN'  'http://www.w3.org/Graphics/SVG/1.1/DTD/svg11.dtd'><svg enable-background="new -283.375 86 38.625 44.469" height="44.469px" id="Layer_1" version="1.1" viewBox="-283.375 86 38.625 44.469" width="38.625px" xml:space="preserve" xmlns="http://www.w3.org/2000/svg" xmlns:xlink="http://www.w3.org/1999/xlink"><g><path d="M-251.961,97.384c-0.001-0.013-3.32-0.571-6.539,1.71c1.312-2.281,3.094-3.812,6.123-4.121   c-1.408-5.168-6.114-8.973-11.73-8.973c-4.432,0-8.305,2.373-10.435,5.912c2.729,0.119,5.606,2.18,7.405,4.506   c-1.703-1.318-3.835-2.111-6.156-2.111c-0.84,0-1.652,0.115-2.432,0.312c-0.002-0.021-0.009-0.043-0.011-0.063   c-0.008,0.022-0.018,0.047-0.025,0.07c-4.372,1.104-7.614,5.05-7.614,9.766c0,5.565,4.514,10.08,10.082,10.08h19.939   c4.752,0,8.604-3.853,8.604-8.604C-244.75,101.588-247.873,98.051-251.961,97.384z" fill="#363636"/><path d="M-268.314,117.469l-3.548,4.621c-1.009,1.312-0.484,2.379,1.173,2.379h2l-3,6l10.559-7.256   c1.349-0.963,1.098-1.744-0.559-1.744h-1.8l4.8-4H-268.314z" fill="#363636"/></g></svg>