<?xml version="1.0" ?><!DOCTYPE svg  PUBLIC '-//W3C//DTD SVG 1.1//EN'  'http://www.w3.org/Graphics/SVG/1.1/DTD/svg11.dtd'><svg enable-background="new -211.355 160.469 37 39" height="39px" id="Layer_1" version="1.1" viewBox="-211.355 160.469 37 39" width="37px" xml:space="preserve" xmlns="http://www.w3.org/2000/svg" xmlns:xlink="http://www.w3.org/1999/xlink"><g><path d="M-201.355,191.469c14.25,0,19-2.375,19-19c0,8.287,1.181,13.032,4.13,15.708   c1.103-1.715,1.93-3.625,2.4-5.675c-0.969-0.15-1.73-1.428-1.73-3.002c0-1.675,0.858-3.031,1.916-3.031   c0.059,0,0.114,0.02,0.171,0.027c-0.983-9.014-8.613-16.027-17.887-16.027c-9.941,0-18,8.059-18,18c0,0.588,0.033,1.17,0.088,1.742   c1.417-0.148,2.905,1.016,3.474,2.818s0.02,3.604-1.219,4.3c2.149,3.79,5.631,6.713,9.811,8.149   c0.772-0.623,1.74-1.011,2.809-1.011c1.545,0,2.906,0.779,3.717,1.966c2.018-0.074,3.949-0.485,5.743-1.172   C-189.922,192.573-194.544,191.469-201.355,191.469z M-188.434,165.936c0.706-1.187,2.432-1.463,3.855-0.615   c1.425,0.849,2.007,2.496,1.301,3.684c-0.707,1.186-2.434,1.462-3.857,0.614C-188.558,168.77-189.141,167.121-188.434,165.936z    M-188.658,181.686c0.764,0.945,0.525,2.403-0.533,3.256c-1.056,0.854-2.531,0.777-3.294-0.166   c-0.764-0.945-0.525-2.403,0.532-3.258C-190.896,180.665-189.422,180.738-188.658,181.686z M-209.782,172.969l8.625-1.375   l1.375-9.125l1.5,9l8.75,1.5l-8.75,1.375l-1.5,9.25l-1.5-9.125L-209.782,172.969z" fill="#363636"/><path d="M-182.355,199.469c0-6-2-8-8-8c6,0,8-1,8-8c0,7,2,8,8,8C-180.355,191.469-182.355,193.469-182.355,199.469z   " fill="#363636"/></g></svg>