<?xml version="1.0" ?><!DOCTYPE svg  PUBLIC '-//W3C//DTD SVG 1.1//EN'  'http://www.w3.org/Graphics/SVG/1.1/DTD/svg11.dtd'><svg enable-background="new -140.375 86 38.625 40.469" height="40.469px" id="Layer_1" version="1.1" viewBox="-140.375 86 38.625 40.469" width="38.625px" xml:space="preserve" xmlns="http://www.w3.org/2000/svg" xmlns:xlink="http://www.w3.org/1999/xlink"><g><g><path d="M-108.961,97.384c-0.002-0.013-3.32-0.571-6.539,1.71c1.312-2.281,3.094-3.812,6.123-4.121    c-1.408-5.168-6.115-8.973-11.73-8.973c-4.432,0-8.305,2.373-10.436,5.912c2.73,0.119,5.607,2.18,7.406,4.506    c-1.703-1.318-3.836-2.111-6.156-2.111c-0.84,0-1.652,0.115-2.432,0.312c-0.002-0.021-0.01-0.043-0.012-0.063    c-0.008,0.022-0.018,0.047-0.025,0.07c-4.371,1.104-7.613,5.05-7.613,9.766c0,5.565,4.514,10.08,10.082,10.08h19.939    c4.752,0,8.604-3.853,8.604-8.604C-101.75,101.588-104.873,98.051-108.961,97.384z" fill="#363636"/><path d="M-135.002,120.943c-0.195,0.195-0.512,0.195-0.707,0l0,0c-0.195-0.195-0.195-0.512,0-0.707l2.121-2.121    c0.195-0.195,0.512-0.195,0.707,0l0,0c0.195,0.195,0.195,0.512,0,0.707L-135.002,120.943z" fill="#363636"/><path d="M-123.244,120.943c-0.195,0.195-0.512,0.195-0.707,0l0,0c-0.195-0.195-0.195-0.512,0-0.707l2.121-2.121    c0.195-0.195,0.512-0.195,0.707,0l0,0c0.195,0.195,0.195,0.512,0,0.707L-123.244,120.943z" fill="#363636"/><path d="M-111.486,120.943c-0.195,0.195-0.512,0.195-0.707,0l0,0c-0.195-0.195-0.195-0.512,0-0.707l2.121-2.121    c0.195-0.195,0.512-0.195,0.707,0l0,0c0.195,0.195,0.195,0.512,0,0.707L-111.486,120.943z" fill="#363636"/><path d="M-129.123,125.822c-0.195,0.195-0.512,0.195-0.707,0l0,0c-0.195-0.195-0.195-0.512,0-0.707l2.121-2.121    c0.195-0.195,0.512-0.195,0.707,0l0,0c0.195,0.195,0.195,0.512,0,0.707L-129.123,125.822z" fill="#363636"/><path d="M-117.365,125.822c-0.195,0.195-0.512,0.195-0.707,0l0,0c-0.195-0.195-0.195-0.512,0-0.707l2.121-2.121    c0.195-0.195,0.512-0.195,0.707,0l0,0c0.195,0.195,0.195,0.512,0,0.707L-117.365,125.822z" fill="#363636"/></g><circle cx="-128.355" cy="119.469" fill="#363636" r="2"/><circle cx="-116.355" cy="119.469" fill="#363636" r="2"/><circle cx="-110.355" cy="124.469" fill="#363636" r="2"/><circle cx="-123.355" cy="124.469" fill="#363636" r="2"/><circle cx="-135.355" cy="124.469" fill="#363636" r="2"/></g></svg>