<?xml version="1.0" ?><!DOCTYPE svg  PUBLIC '-//W3C//DTD SVG 1.1//EN'  'http://www.w3.org/Graphics/SVG/1.1/DTD/svg11.dtd'><svg enable-background="new -9.376 155.51 50.021 48.959" height="48.959px" id="Layer_1" version="1.1" viewBox="-9.376 155.51 50.021 48.959" width="50.021px" xml:space="preserve" xmlns="http://www.w3.org/2000/svg" xmlns:xlink="http://www.w3.org/1999/xlink"><g><path d="M7.117,170.836l1.164-1.936c1.192-1.982,2.772-3.617,4.609-4.842c-1.771-4.979-6.51-8.549-12.095-8.549   c-0.457,0-0.909,0.026-1.353,0.072c2.685,2.13,4.411,5.413,4.411,9.105c0,6.42-5.205,11.625-11.625,11.625   c-0.546,0-1.079-0.051-1.604-0.123c2.032,2.637,5.061,4.461,8.526,4.906C-0.205,176.508,2.828,172.598,7.117,170.836z" fill="#363636"/><path d="M33.434,176.384c0-0.013-3.319-0.571-6.539,1.712c1.312-2.283,3.095-3.813,6.123-4.123   C31.609,168.805,26.904,165,21.288,165c-4.432,0-8.305,2.373-10.435,5.912c2.729,0.119,5.606,2.18,7.405,4.506   c-1.703-1.318-3.835-2.111-6.156-2.111c-0.84,0-1.652,0.115-2.432,0.312c-0.002-0.021-0.009-0.043-0.011-0.063   c-0.008,0.022-0.018,0.047-0.025,0.07c-4.372,1.104-7.614,5.05-7.614,9.766c0,5.565,4.514,10.08,10.082,10.08h19.939   c4.752,0,8.604-3.853,8.604-8.604C40.645,180.588,37.521,177.051,33.434,176.384z" fill="#363636"/><circle cx="9.205" cy="197.861" fill="#363636" r="1.5"/><circle cx="15.084" cy="197.861" fill="#363636" r="1.5"/><circle cx="20.963" cy="197.861" fill="#363636" r="1.5"/><circle cx="26.842" cy="197.861" fill="#363636" r="1.5"/><circle cx="32.721" cy="197.861" fill="#363636" r="1.5"/><circle cx="8.205" cy="202.969" fill="#363636" r="1.5"/><circle cx="14.084" cy="202.969" fill="#363636" r="1.5"/><circle cx="19.963" cy="202.969" fill="#363636" r="1.5"/><circle cx="25.842" cy="202.969" fill="#363636" r="1.5"/><circle cx="31.721" cy="202.969" fill="#363636" r="1.5"/></g></svg>