<?xml version="1.0" ?><!DOCTYPE svg  PUBLIC '-//W3C//DTD SVG 1.1//EN'  'http://www.w3.org/Graphics/SVG/1.1/DTD/svg11.dtd'><svg enable-background="new -71.029 86 38.625 37.469" height="37.469px" id="Layer_1" version="1.1" viewBox="-71.029 86 38.625 37.469" width="38.625px" xml:space="preserve" xmlns="http://www.w3.org/2000/svg" xmlns:xlink="http://www.w3.org/1999/xlink"><g><path d="M-39.614,97.384c-0.001-0.013-3.32-0.571-6.539,1.71c1.312-2.281,3.094-3.812,6.123-4.121   C-41.438,89.805-46.145,86-51.761,86c-4.432,0-8.305,2.373-10.435,5.912c2.729,0.119,5.606,2.18,7.405,4.506   c-1.703-1.318-3.835-2.111-6.156-2.111c-0.84,0-1.652,0.115-2.432,0.312c-0.002-0.021-0.009-0.043-0.011-0.063   c-0.008,0.022-0.018,0.047-0.025,0.07c-4.372,1.104-7.614,5.05-7.614,9.766c0,5.565,4.514,10.08,10.082,10.08h19.939   c4.752,0,8.604-3.853,8.604-8.604C-32.403,101.588-35.526,98.051-39.614,97.384z" fill="#363636"/><path d="M-63.028,121.469c-0.553,0-1-0.447-1-1l0,0c0-0.553,0.447-1,1-1h4c0.553,0,1,0.447,1,1l0,0   c0,0.553-0.447,1-1,1H-63.028z" fill="#363636"/><path d="M-63.028,121.469c-0.553,0-1-0.447-1-1l0,0c0-0.553,0.447-1,1-1h4c0.553,0,1,0.447,1,1l0,0   c0,0.553-0.447,1-1,1H-63.028z" fill="#363636"/><path d="M-60.028,122.469c0,0.553-0.447,1-1,1l0,0c-0.553,0-1-0.447-1-1v-4c0-0.553,0.447-1,1-1l0,0   c0.553,0,1,0.447,1,1V122.469z" fill="#363636"/><path d="M-54.028,121.469c-0.553,0-1-0.447-1-1l0,0c0-0.553,0.447-1,1-1h4c0.553,0,1,0.447,1,1l0,0   c0,0.553-0.447,1-1,1H-54.028z" fill="#363636"/><path d="M-54.028,121.469c-0.553,0-1-0.447-1-1l0,0c0-0.553,0.447-1,1-1h4c0.553,0,1,0.447,1,1l0,0   c0,0.553-0.447,1-1,1H-54.028z" fill="#363636"/><path d="M-51.028,122.469c0,0.553-0.447,1-1,1l0,0c-0.553,0-1-0.447-1-1v-4c0-0.553,0.447-1,1-1l0,0   c0.553,0,1,0.447,1,1V122.469z" fill="#363636"/><path d="M-45.028,121.469c-0.553,0-1-0.447-1-1l0,0c0-0.553,0.447-1,1-1h4c0.553,0,1,0.447,1,1l0,0   c0,0.553-0.447,1-1,1H-45.028z" fill="#363636"/><path d="M-45.028,121.469c-0.553,0-1-0.447-1-1l0,0c0-0.553,0.447-1,1-1h4c0.553,0,1,0.447,1,1l0,0   c0,0.553-0.447,1-1,1H-45.028z" fill="#363636"/><path d="M-42.028,122.469c0,0.553-0.447,1-1,1l0,0c-0.553,0-1-0.447-1-1v-4c0-0.553,0.447-1,1-1l0,0   c0.553,0,1,0.447,1,1V122.469z" fill="#363636"/></g></svg>