<?xml version="1.0" ?><!DOCTYPE svg  PUBLIC '-//W3C//DTD SVG 1.1//EN'  'http://www.w3.org/Graphics/SVG/1.1/DTD/svg11.dtd'><svg enable-background="new -0.434 86 38.625 37.469" height="37.469px" id="Layer_1" version="1.1" viewBox="-0.434 86 38.625 37.469" width="38.625px" xml:space="preserve" xmlns="http://www.w3.org/2000/svg" xmlns:xlink="http://www.w3.org/1999/xlink"><g><path d="M30.98,97.384c-0.002-0.013-3.32-0.571-6.539,1.71c1.312-2.281,3.094-3.812,6.123-4.121   C29.156,89.805,24.45,86,18.834,86c-4.432,0-8.305,2.373-10.435,5.912c2.729,0.119,5.606,2.18,7.405,4.506   c-1.703-1.318-3.835-2.111-6.156-2.111c-0.84,0-1.652,0.115-2.432,0.312c-0.002-0.021-0.009-0.043-0.011-0.063   c-0.008,0.022-0.018,0.047-0.025,0.07c-4.372,1.104-7.614,5.05-7.614,9.766c0,5.565,4.514,10.08,10.082,10.08h19.939   c4.752,0,8.604-3.853,8.604-8.604C38.191,101.588,35.068,98.051,30.98,97.384z" fill="#363636"/><g><path d="M6.484,118.934c-0.391-0.391-0.391-1.022,0-1.414l0,0c0.391-0.391,1.023-0.391,1.414,0l4.242,4.242    c0.391,0.391,0.391,1.023,0,1.414l0,0c-0.391,0.391-1.023,0.391-1.414,0L6.484,118.934z" fill="#363636"/><path d="M7.898,123.176c-0.391,0.391-1.023,0.391-1.414,0l0,0c-0.392-0.391-0.391-1.023,0-1.414l4.242-4.242    c0.391-0.391,1.023-0.391,1.414,0l0,0c0.391,0.392,0.391,1.023,0,1.414L7.898,123.176z" fill="#363636"/></g><g><path d="M15.605,118.934c-0.391-0.391-0.391-1.022,0-1.414l0,0c0.391-0.391,1.023-0.391,1.414,0l4.242,4.242    c0.392,0.391,0.392,1.023,0,1.414l0,0c-0.391,0.391-1.022,0.391-1.413,0L15.605,118.934z" fill="#363636"/><path d="M17.02,123.176c-0.391,0.391-1.023,0.391-1.414,0l0,0c-0.392-0.391-0.391-1.023,0-1.414l4.242-4.242    c0.392-0.391,1.023-0.391,1.414,0l0,0c0.391,0.392,0.391,1.023,0,1.414L17.02,123.176z" fill="#363636"/></g><g><path d="M25.363,118.934c-0.391-0.391-0.391-1.022,0-1.414l0,0c0.391-0.391,1.022-0.391,1.414,0l4.242,4.242    c0.391,0.391,0.391,1.023,0,1.414l0,0c-0.392,0.391-1.023,0.391-1.414,0L25.363,118.934z" fill="#363636"/><path d="M26.777,123.176c-0.392,0.391-1.023,0.391-1.414,0l0,0c-0.393-0.391-0.391-1.023,0-1.414l4.242-4.242    c0.391-0.391,1.022-0.391,1.414,0l0,0c0.391,0.392,0.391,1.023,0,1.414L26.777,123.176z" fill="#363636"/></g></g></svg>