<?xml version="1.0" ?><!DOCTYPE svg  PUBLIC '-//W3C//DTD SVG 1.1//EN'  'http://www.w3.org/Graphics/SVG/1.1/DTD/svg11.dtd'><svg enable-background="new 0 0 38.625 39.469" height="39.469px" id="Layer_1" version="1.1" viewBox="0 0 38.625 39.469" width="38.625px" xml:space="preserve" xmlns="http://www.w3.org/2000/svg" xmlns:xlink="http://www.w3.org/1999/xlink"><g><path d="M31.414,11.384c-0.002-0.012-3.32-0.571-6.539,1.71c1.312-2.281,3.094-3.812,6.123-4.122   C29.59,3.805,24.883,0,19.268,0c-4.432,0-8.305,2.373-10.435,5.913c2.729,0.119,5.606,2.18,7.405,4.506   c-1.703-1.318-3.835-2.111-6.156-2.111c-0.84,0-1.652,0.115-2.432,0.31C7.648,8.595,7.642,8.575,7.64,8.552   C7.632,8.577,7.622,8.6,7.614,8.624C3.242,9.727,0,13.674,0,18.389c0,5.566,4.514,10.08,10.082,10.08h19.939   c4.752,0,8.604-3.852,8.604-8.604C38.625,15.588,35.502,12.051,31.414,11.384z" fill="#363636"/><path d="M5.104,34.443c-0.195,0.195-0.512,0.195-0.707,0l0,0c-0.195-0.195-0.195-0.512,0-0.707l2.121-2.121   c0.195-0.195,0.512-0.195,0.707,0l0,0c0.195,0.195,0.195,0.512,0,0.707L5.104,34.443z" fill="#363636"/><path d="M10.982,34.443c-0.195,0.195-0.512,0.195-0.707,0l0,0c-0.195-0.195-0.195-0.512,0-0.707l2.121-2.121   c0.195-0.195,0.512-0.195,0.707,0l0,0c0.195,0.195,0.195,0.512,0,0.707L10.982,34.443z" fill="#363636"/><path d="M16.861,34.443c-0.195,0.195-0.512,0.195-0.707,0l0,0c-0.195-0.195-0.195-0.512,0-0.707l2.121-2.121   c0.195-0.195,0.512-0.195,0.707,0l0,0c0.195,0.195,0.195,0.512,0,0.707L16.861,34.443z" fill="#363636"/><path d="M22.74,34.443c-0.195,0.195-0.512,0.195-0.707,0l0,0c-0.195-0.195-0.195-0.512,0-0.707l2.121-2.121   c0.195-0.195,0.512-0.195,0.707,0l0,0c0.195,0.195,0.195,0.512,0,0.707L22.74,34.443z" fill="#363636"/><path d="M28.619,34.443c-0.195,0.195-0.512,0.195-0.707,0l0,0c-0.195-0.195-0.195-0.512,0-0.707l2.121-2.121   c0.195-0.195,0.512-0.195,0.707,0l0,0c0.195,0.195,0.195,0.512,0,0.707L28.619,34.443z" fill="#363636"/><path d="M5.104,39.322c-0.195,0.195-0.512,0.195-0.707,0l0,0c-0.195-0.195-0.195-0.512,0-0.707l2.121-2.121   c0.195-0.195,0.512-0.195,0.707,0l0,0c0.195,0.195,0.195,0.512,0,0.707L5.104,39.322z" fill="#363636"/><path d="M10.982,39.322c-0.195,0.195-0.512,0.195-0.707,0l0,0c-0.195-0.195-0.195-0.512,0-0.707l2.121-2.121   c0.195-0.195,0.512-0.195,0.707,0l0,0c0.195,0.195,0.195,0.512,0,0.707L10.982,39.322z" fill="#363636"/><path d="M16.861,39.322c-0.195,0.195-0.512,0.195-0.707,0l0,0c-0.195-0.195-0.195-0.512,0-0.707l2.121-2.121   c0.195-0.195,0.512-0.195,0.707,0l0,0c0.195,0.195,0.195,0.512,0,0.707L16.861,39.322z" fill="#363636"/><path d="M22.74,39.322c-0.195,0.195-0.512,0.195-0.707,0l0,0c-0.195-0.195-0.195-0.512,0-0.707l2.121-2.121   c0.195-0.195,0.512-0.195,0.707,0l0,0c0.195,0.195,0.195,0.512,0,0.707L22.74,39.322z" fill="#363636"/><path d="M28.619,39.322c-0.195,0.195-0.512,0.195-0.707,0l0,0c-0.195-0.195-0.195-0.512,0-0.707l2.121-2.121   c0.195-0.195,0.512-0.195,0.707,0l0,0c0.195,0.195,0.195,0.512,0,0.707L28.619,39.322z" fill="#363636"/></g></svg>