<?xml version="1.0" ?><!DOCTYPE svg  PUBLIC '-//W3C//DTD SVG 1.1//EN'  'http://www.w3.org/Graphics/SVG/1.1/DTD/svg11.dtd'><svg enable-background="new -283.355 -5.532 41 41.001" height="41.001px" id="Layer_1" version="1.1" viewBox="-283.355 -5.532 41 41.001" width="41px" xml:space="preserve" xmlns="http://www.w3.org/2000/svg" xmlns:xlink="http://www.w3.org/1999/xlink"><g><path d="M-262.855,3.58c-6.289,0-11.389,5.099-11.389,11.389c0,6.29,5.1,11.389,11.389,11.389   s11.389-5.099,11.389-11.389C-251.466,8.679-256.566,3.58-262.855,3.58z M-262.855,21.802c-3.769,0-6.834-3.066-6.834-6.833   c0-3.767,3.065-6.833,6.834-6.833s6.833,3.066,6.833,6.833C-256.022,18.736-259.087,21.802-262.855,21.802z" fill="#363636"/><path d="M-260.578-2.115c0,1.879-1.025,3.417-2.277,3.417s-2.277-1.538-2.277-3.417   c0-1.879,1.025-3.417,2.277-3.417S-260.578-3.994-260.578-2.115z" fill="#363636"/><path d="M-260.578,32.052c0,1.88-1.025,3.417-2.277,3.417s-2.277-1.537-2.277-3.417   c0-1.879,1.025-3.417,2.277-3.417S-260.578,30.173-260.578,32.052z" fill="#363636"/><path d="M-245.772,17.247c-1.879,0-3.416-1.025-3.416-2.278c0-1.253,1.537-2.278,3.416-2.278   c1.88,0,3.417,1.025,3.417,2.278C-242.355,16.222-243.893,17.247-245.772,17.247z" fill="#363636"/><path d="M-279.939,17.247c-1.879,0-3.416-1.025-3.416-2.278c0-1.253,1.537-2.278,3.416-2.278   c1.881,0,3.418,1.025,3.418,2.278C-276.521,16.222-278.059,17.247-279.939,17.247z" fill="#363636"/><path d="M-249.165,4.5c-1.329,1.329-3.14,1.691-4.026,0.805c-0.887-0.886-0.524-2.697,0.805-4.026   c1.329-1.329,3.14-1.692,4.026-0.805C-247.474,1.359-247.836,3.171-249.165,4.5z" fill="#363636"/><path d="M-273.324,28.659c-1.33,1.329-3.141,1.692-4.026,0.805c-0.887-0.886-0.524-2.696,0.806-4.026   c1.328-1.328,3.139-1.69,4.025-0.805C-271.633,25.52-271.996,27.33-273.324,28.659z" fill="#363636"/><path d="M-273.324,1.279c1.328,1.329,1.691,3.14,0.805,4.026c-0.887,0.886-2.697,0.523-4.025-0.805   c-1.33-1.329-1.692-3.14-0.806-4.026C-276.465-0.413-274.654-0.05-273.324,1.279z" fill="#363636"/><path d="M-249.165,25.438c1.329,1.33,1.691,3.141,0.805,4.026c-0.887,0.888-2.697,0.524-4.026-0.805   c-1.329-1.329-1.691-3.14-0.805-4.026C-252.305,23.747-250.494,24.109-249.165,25.438z" fill="#363636"/></g></svg>